<svg width="33" height="33" viewBox="0 0 33 33" fill="none" xmlns="http://www.w3.org/2000/svg">
<g clip-path="url(#clip0_658_55)">
<path d="M16.7527 21.3828C19.5141 21.3828 21.7527 19.1442 21.7527 16.3828C21.7527 13.6214 19.5141 11.3828 16.7527 11.3828C13.9913 11.3828 11.7527 13.6214 11.7527 16.3828C11.7527 19.1442 13.9913 21.3828 16.7527 21.3828Z" stroke="white" stroke-width="2" stroke-miterlimit="10"/>
<path d="M22.7527 4.38281H10.7527C7.43898 4.38281 4.75269 7.0691 4.75269 10.3828V22.3828C4.75269 25.6965 7.43898 28.3828 10.7527 28.3828H22.7527C26.0664 28.3828 28.7527 25.6965 28.7527 22.3828V10.3828C28.7527 7.0691 26.0664 4.38281 22.7527 4.38281Z" stroke="white" stroke-width="2" stroke-linecap="round" stroke-linejoin="round"/>
<path d="M23.2527 11.3828C24.0811 11.3828 24.7527 10.7112 24.7527 9.88281C24.7527 9.05439 24.0811 8.38281 23.2527 8.38281C22.4243 8.38281 21.7527 9.05439 21.7527 9.88281C21.7527 10.7112 22.4243 11.3828 23.2527 11.3828Z" fill="white"/>
</g>
<defs>
<clipPath id="clip0_658_55">
<rect width="32" height="32" fill="white" transform="translate(0.752686 0.382812)"/>
</clipPath>
</defs>
</svg>
